<?xml version="1.0" encoding="UTF-8" standalone="no"?>
<svg
   xmlns:dc="http://purl.org/dc/elements/1.1/"
   xmlns:cc="http://creativecommons.org/ns#"
   xmlns:rdf="http://www.w3.org/1999/02/22-rdf-syntax-ns#"
   xmlns:svg="http://www.w3.org/2000/svg"
   xmlns="http://www.w3.org/2000/svg"
   version="1.1"
   id="Capa_1"
   x="0px"
   y="0px"
   viewBox="0 0 783.25499 188.75999"
   xml:space="preserve"
   width="783.255"
   height="188.75999"><metadata
   id="metadata31"><rdf:RDF><cc:Work
       rdf:about=""><dc:format>image/svg+xml</dc:format><dc:type
         rdf:resource="http://purl.org/dc/dcmitype/StillImage" /><dc:title></dc:title></cc:Work></rdf:RDF></metadata><defs
   id="defs29" />
<style
   type="text/css"
   id="style2">
	.st0{fill:#0A080B;}
	.st1{fill:#070308;stroke:#070308;stroke-width:0.25;stroke-miterlimit:10;}
</style>
<g
   id="g6"
   transform="translate(-24.19,-185.125)"
   style="fill:#0e909d;fill-opacity:1">
	<path
   class="st0"
   d="m 99.46,365.48 c -1.03,0 -2.08,-0.27 -3.02,-0.81 L 27.21,324.7 c -1.86,-1.07 -3.02,-3.07 -3.02,-5.22 v -40.61 c 0,-1.07 0.28,-2.12 0.82,-3.03 0.28,-0.48 0.62,-1.12 1.02,-1.9 4.22,-7.98 15.45,-29.17 38.82,-29.17 21.54,0 38.04,28.55 39.85,31.81 3.82,7.2 16.39,25.61 29.32,25.61 12.18,0 24.11,-15.76 28.63,-23.32 v -35.86 l -63.2,-36.48 -63.2,36.48 v 8.91 c 0,3.32 -2.7,6.02 -6.02,6.02 -3.32,0 -6.02,-2.7 -6.02,-6.02 v -12.4 c 0,-2.15 1.15,-4.14 3.02,-5.22 l 69.23,-39.97 c 1.86,-1.07 4.16,-1.07 6.02,0 l 69.23,39.97 c 1.86,1.07 3.02,3.07 3.02,5.22 v 40.94 c 0,1.01 -0.26,2.02 -0.75,2.91 -0.69,1.26 -17.23,30.86 -39.93,30.86 -22.83,0 -39.22,-30.62 -39.91,-31.93 -3.92,-7.01 -16.94,-25.49 -29.24,-25.49 -16.12,0 -24.26,15.37 -28.19,22.76 -0.16,0.3 -0.31,0.57 -0.44,0.84 V 316 l 63.2,36.48 63.2,-36.48 v -9.01 c 0,-3.32 2.7,-6.02 6.02,-6.02 3.32,0 6.02,2.7 6.02,6.02 v 12.5 c 0,2.15 -1.15,4.14 -3.02,5.22 l -69.23,39.97 c -0.92,0.53 -1.96,0.8 -3,0.8 z"
   id="path4"
   style="fill:#0e909d;fill-opacity:1" />
</g>
<g
   id="g24"
   transform="translate(-24.19,-185.125)"
   style="fill:#0e909d;fill-opacity:1">
	<g
   id="g22"
   style="fill:#0e909d;fill-opacity:1">
		<path
   class="st1"
   d="m 294.47,329.55 c -3.6,0 -5.84,-2.24 -5.84,-5.84 v -12.06 c -3.85,4.61 -8.47,8.45 -13.81,11.45 -7.6,4.28 -15.86,6.45 -24.56,6.45 -13.76,0 -25.67,-4.93 -35.39,-14.65 -9.72,-9.72 -14.65,-21.63 -14.65,-35.4 0,-13.76 4.93,-25.67 14.65,-35.39 9.72,-9.72 21.63,-14.65 35.39,-14.65 8.7,0 16.96,2.17 24.56,6.45 5.34,3.01 9.97,6.85 13.81,11.45 v -56.28 c 0,-3.6 2.24,-5.83 5.84,-5.83 3.6,0 5.84,2.24 5.84,5.83 v 132.63 c -0.01,3.6 -2.24,5.84 -5.84,5.84 z m -44.21,-88.32 c -10.7,0 -19.58,3.67 -27.14,11.21 -7.56,7.54 -11.23,16.39 -11.23,27.07 0,10.68 3.67,19.53 11.23,27.07 7.56,7.54 16.44,11.21 27.14,11.21 10.7,0 19.58,-3.67 27.14,-11.21 7.56,-7.54 11.23,-16.4 11.23,-27.07 0,-10.67 -3.67,-19.53 -11.23,-27.07 -7.56,-7.55 -16.44,-11.21 -27.14,-11.21 z"
   id="path8"
   style="fill:#0e909d;fill-opacity:1" />
		<path
   class="st1"
   d="m 355.38,373.76 c -13.71,0 -23.99,-5.9 -30.58,-17.52 -0.55,-1.09 -0.8,-2.08 -0.8,-3.05 0,-3.54 2.31,-5.74 6.03,-5.74 1.72,0 3.47,1.28 6.25,4.55 2.59,3 4.94,5.22 6.97,6.59 3.43,2.25 7.51,3.4 12.12,3.4 6.54,0 11.99,-2.27 16.68,-6.95 4.68,-4.67 6.96,-10.12 6.96,-16.64 v -17.84 c -6.43,5.97 -14.35,8.99 -23.64,8.99 -9.66,0 -18.04,-3.49 -24.93,-10.38 -6.89,-6.89 -10.38,-15.27 -10.38,-24.93 v -58.95 c 0,-3.6 2.24,-5.83 5.84,-5.83 3.6,0 5.84,2.23 5.84,5.83 v 58.88 c 0,6.53 2.28,11.98 6.96,16.65 4.68,4.68 10.14,6.95 16.68,6.95 6.54,0 11.99,-2.27 16.68,-6.95 4.68,-4.68 6.96,-10.12 6.96,-16.66 v -58.88 c 0,-3.6 2.24,-5.83 5.84,-5.83 3.6,0 5.84,2.24 5.84,5.83 v 103.16 c 0,9.65 -3.49,18.04 -10.38,24.93 -6.9,6.9 -15.29,10.39 -24.94,10.39 z"
   id="path10"
   style="fill:#0e909d;fill-opacity:1" />
		<path
   class="st1"
   d="m 455.49,329.55 c -1.47,0 -3.6,-0.63 -5.4,-3.62 -2.6,-4.73 -10.65,-20.66 -23.96,-47.42 -20.68,-41.47 -20.68,-42.36 -20.68,-43.31 0,-3.54 2.32,-5.74 6.05,-5.74 2.2,0 4,1.11 5.08,3.12 l 38.97,78.09 38.94,-78.04 c 1.1,-2.07 2.9,-3.18 5.1,-3.18 3.73,0 6.05,2.2 6.05,5.74 0,0.95 0,1.84 -20.69,43.31 -13.31,26.75 -21.35,42.68 -23.92,47.34 -1.84,3.08 -4.03,3.71 -5.54,3.71 z"
   id="path12"
   style="fill:#0e909d;fill-opacity:1" />
		<path
   class="st1"
   d="m 560.7,329.55 c -13.76,0 -25.67,-4.93 -35.39,-14.65 -9.72,-9.72 -14.65,-21.63 -14.65,-35.4 0,-13.76 4.93,-25.67 14.65,-35.39 9.72,-9.72 21.63,-14.65 35.39,-14.65 5.42,0 11.04,1 16.71,2.98 5.28,1.92 10.78,5.04 16.38,9.29 7.38,5.64 10.97,10.8 10.97,15.76 0,2.2 -1.05,3.96 -2.94,4.97 l -71.09,41.06 c 7.53,9.59 17.36,14.26 29.97,14.26 11.7,0 21.04,-4.15 28.56,-12.68 0.98,-1.33 2.6,-3.6 4.75,-6.64 1.71,-2.23 3.61,-2.68 4.91,-2.68 3.66,0 5.94,2.2 5.94,5.74 0,0.96 -0.25,1.95 -0.74,2.94 -4.46,7.74 -10.62,13.87 -18.39,18.35 -7.77,4.47 -16.19,6.74 -25.03,6.74 z m -0.01,-88.32 c -10.7,0 -19.57,3.67 -27.13,11.21 -7.56,7.54 -11.23,16.39 -11.23,27.07 0,4.81 0.86,9.48 2.56,13.91 l 65.75,-37.98 c -7.52,-9.56 -17.35,-14.21 -29.95,-14.21 z"
   id="path14"
   style="fill:#0e909d;fill-opacity:1" />
		<path
   class="st1"
   d="m 684.49,329.55 c -3.6,0 -5.84,-2.23 -5.84,-5.83 v -58.88 c 0,-6.53 -2.28,-11.98 -6.96,-16.65 -4.68,-4.68 -10.14,-6.95 -16.68,-6.95 -6.54,0 -11.99,2.27 -16.68,6.95 -4.68,4.68 -6.96,10.13 -6.96,16.65 v 58.88 c 0,3.6 -2.24,5.83 -5.84,5.83 -3.6,0 -5.84,-2.24 -5.84,-5.84 v -88.42 c 0,-3.6 2.24,-5.83 5.84,-5.83 3.6,0 5.84,2.24 5.84,5.83 v 3.15 c 6.43,-5.97 14.35,-8.99 23.63,-8.99 9.65,0 18.04,3.49 24.93,10.38 6.89,6.89 10.38,15.28 10.38,24.93 v 58.95 c 0.01,3.6 -2.22,5.84 -5.82,5.84 z"
   id="path16"
   style="fill:#0e909d;fill-opacity:1" />
		<path
   class="st1"
   d="m 715.92,329.55 c -3.6,0 -5.84,-2.24 -5.84,-5.84 v -88.42 c 0,-3.6 2.24,-5.83 5.84,-5.83 3.6,0 5.84,2.24 5.84,5.83 v 88.42 c 0,3.6 -2.24,5.84 -5.84,5.84 z m 0,-125.26 c -6.14,0 -9.67,-3.42 -9.67,-9.37 0,-2.62 0.96,-4.91 2.86,-6.81 1.9,-1.9 4.19,-2.86 6.81,-2.86 2.61,0 4.9,0.96 6.8,2.86 1.9,1.91 2.87,4.19 2.87,6.81 0,5.95 -3.52,9.37 -9.67,9.37 z"
   id="path18"
   style="fill:#0e909d;fill-opacity:1" />
		<path
   class="st1"
   d="m 745.25,243.94 c 0.15,-1.46 0.57,-2.84 1.71,-4.08 6.34,-6.9 14.77,-10.4 25.05,-10.4 9.65,0 18.04,3.49 24.93,10.38 6.89,6.89 10.38,15.28 10.38,24.93 v 58.95 c 0,3.6 -2.23,5.84 -5.83,5.84 -3.6,0 -5.84,-2.24 -5.84,-5.84 v -3.15 c -6.43,5.97 -14.35,8.99 -23.64,8.99 -9.66,0 -18.05,-3.49 -24.93,-10.38 -6.89,-6.88 -10.38,-15.27 -10.38,-24.93 0,-9.66 3.49,-18.04 10.38,-24.93 6.89,-6.89 15.28,-10.38 24.93,-10.38 9.28,0 17.21,3.02 23.64,8.99 v -3.13 c 0,-6.52 -2.28,-11.95 -6.96,-16.62 -4.69,-4.67 -10.14,-6.94 -16.68,-6.94 -4.18,0 -8.47,1.34 -12.75,3.97 -5.37,3.31 -5.34,3.35 -6.56,4.12 -2.65,1.66 -8.06,0.72 -7.45,-5.39 z m 26.77,26.76 c -6.54,0 -12,2.27 -16.68,6.93 -4.68,4.66 -6.96,10.09 -6.96,16.6 0,6.51 2.28,11.94 6.96,16.6 4.68,4.67 10.14,6.94 16.68,6.94 6.54,0 11.99,-2.27 16.68,-6.94 4.68,-4.66 6.96,-10.1 6.96,-16.6 0,-6.51 -2.28,-11.94 -6.96,-16.6 -4.69,-4.66 -10.14,-6.93 -16.68,-6.93 z"
   id="path20"
   style="fill:#0e909d;fill-opacity:1" />
	</g>
</g>
</svg>
